<?xml version="1.0" encoding="utf-8"?>
<!-- Generator: Adobe Illustrator 28.2.0, SVG Export Plug-In . SVG Version: 6.00 Build 0)  -->
<svg version="1.1" id="Layer_1" xmlns="http://www.w3.org/2000/svg" xmlns:xlink="http://www.w3.org/1999/xlink" x="0px" y="0px"
	 viewBox="0 0 1010 86" style="enable-background:new 0 0 1010 86;" xml:space="preserve">
<style type="text/css">
	.st0{fill:#9900FF;}
</style>
<rect x="25.3" y="47.9" width="15.8" height="8.4"/>
<rect x="65.2" y="47.9" width="75.8" height="8.4"/>
<rect x="165" y="47.9" width="23" height="8.4"/>
<path d="M306.6,47.9c-1,0-2,0.1-3.1,0.2c-7.3,0.4-14.5,0.9-21.7,1.6c-7.1,0.6-13.6,1.6-19.6,2.9c-4.5,1-8.3,2.2-11.4,3.8h-38.8v-8.4
	H306.6z"/>
<path d="M337.1,54.2c3.5-0.4,5.7-0.9,6.7-1.4v3.4h-38.3c2-0.1,4.3-0.2,6.8-0.3c4.2-0.2,8.5-0.5,12.9-0.7
	C329.8,54.9,333.7,54.6,337.1,54.2z"/>
<rect x="367.9" y="47.9" width="12.3" height="8.4"/>
<rect x="404.3" y="47.9" width="75.8" height="8.4"/>
<path d="M522.2,56.3h-18.1v-8.4h9.4c1.2,2.9,3.7,5.5,7.6,7.8C521.5,55.9,521.9,56.1,522.2,56.3z"/>
<path d="M623.3,47.9c-0.8,1.6-2.2,3-4,4.3c-2.3,1.6-5.3,3-9.1,4.1H551c-4.1-1.2-7.4-2.6-9.8-4.3c-1.7-1.2-3-2.6-3.8-4H623.3z"/>
<rect x="647.4" y="47.9" width="12.4" height="8.4"/>
<rect x="683.9" y="47.9" width="15.7" height="8.4"/>
<path d="M813.8,53c0,1.1-0.1,2.2-0.3,3.3h-89.9c-0.2-1.1-0.3-2.1-0.3-3.3c0-1.8,0.2-3.5,0.7-5.1h89C813.5,49.6,813.8,51.2,813.8,53z
	"/>
<path d="M843,47.9v8.4h-5.4c0.1-1,0.2-2,0.2-3.1c0-1.8-0.2-3.6-0.7-5.2H843z"/>
<path d="M872.2,53.5c0,1,0.1,1.9,0.2,2.8h-5.3v-8.4h5.9C872.5,49.7,872.2,51.6,872.2,53.5z"/>
<path d="M872.4,56.3h23.9c0.3,4.2,2.4,7.8,6.1,10.8c4.1,3.3,9.9,5.8,17.2,7.5c7.3,1.7,15.9,2.5,25.6,2.5c6.3,0,12-0.4,17.1-1.1
	c5.2-0.7,9.6-1.8,13.3-3.3c3.7-1.5,6.6-3.3,8.7-5.5l23.2,2.6c-2.4,3.2-6.5,6-12.3,8.4c-5.8,2.4-12.9,4.2-21.4,5.6
	c-8.5,1.3-18,2-28.6,2c-15.1,0-28.1-1.3-39-4c-10.9-2.7-19.3-6.5-25.2-11.3C876,66.3,873.1,61.6,872.4,56.3z"/>
<path d="M1010,56.3H896.3c0-0.4-0.1-0.9-0.1-1.3v-5.6c0-0.5,0-1,0.1-1.5h89.1c0-3.6-1.8-6.7-5.3-9.5c-3.5-2.8-8.4-5-14.9-6.6
	c-6.4-1.6-13.9-2.4-22.6-2.4c-9.6,0-17.9,0.9-24.9,2.9c-6.9,1.9-12.3,4.3-16,7.4c-3.2,2.6-5,5.4-5.5,8.3H873c1.2-4.2,3.9-8,8-11.5
	c5.9-5,14.1-8.8,24.7-11.6c10.6-2.8,23-4.2,37.1-4.2c8.2,0,16.2,0.5,24.2,1.6c8,1.1,15.2,2.9,21.7,5.3c6.5,2.4,11.7,5.7,15.6,9.7
	c3.9,4,5.8,9,5.8,14.9V56.3z"/>
<rect x="843" y="0.5" width="24" height="47.4"/>
<rect x="843" y="56.3" width="24" height="28.2"/>
<path d="M813.4,56.3c-0.7,3.2-2.3,6.2-4.9,9c-3.4,3.6-8.5,6.5-15.3,8.7c-6.7,2.1-15.1,3.2-25.2,3.2c-9.6,0-17.8-1-24.4-3
	c-6.7-2.1-11.7-4.9-15.2-8.5c-2.6-2.8-4.3-5.9-4.9-9.3h-23.9v28.2h23.2v-9.7h2.9c1.8,1.1,4.3,2.6,7.5,4.3c3.3,1.7,7.9,3.3,14,4.6
	c6,1.3,14.1,2,24.1,2c13,0,24.6-1.3,34.5-4c10-2.7,17.8-6.5,23.4-11.3c4.7-4.1,7.5-8.9,8.2-14.2H813.4z M829.3,36
	c-5.6-4.9-13.5-8.6-23.5-11.3c-10-2.6-21.7-4-34.8-4c-10.2,0-18.3,0.7-24.3,2c-5.9,1.3-10.5,2.9-13.7,4.6c-3.1,1.7-5.6,3.1-7.3,4.2
	h-2v-31h-24v47.4H724c0.8-2.7,2.3-5.1,4.4-7.3c3.4-3.6,8.4-6.3,15.1-8.3c6.7-2,14.9-3,24.7-3c10.2,0,18.7,1,25.4,3.1
	c6.8,2.1,11.9,4.9,15.2,8.5c2.1,2.1,3.5,4.4,4.3,6.9h24.2C836,43.5,833.4,39.5,829.3,36z"/>
<rect x="659.8" y="21.5" width="24" height="26.4"/>
<rect x="659.8" y="56.3" width="24" height="28.2"/>
<rect x="380.2" y="56.3" width="24.1" height="28.2"/>
<path d="M504.2,44.5v3.5h-24.1v-2.8c0-5-3.2-8.8-9.6-11.6c-6.4-2.8-15.2-4.2-26.3-4.2c-7.7,0-14.5,0.7-20.6,2
	c-6,1.3-10.7,3.3-14.2,5.9c-3.5,2.6-5.2,5.7-5.2,9.3v1.3h-24.1V21.5h23.2v9.8h2c3.7-3.2,9.2-5.8,16.7-7.7c7.5-2,17.1-3,28.9-3
	c10.6,0,19.9,0.9,27.8,2.6c7.9,1.7,14.1,4.3,18.5,7.9C501.9,34.7,504.2,39.1,504.2,44.5z"/>
<rect x="480.1" y="56.3" width="24.1" height="28.2"/>
<path d="M343.8,56.3v5.4c0,2.6-1.7,5.1-5.1,7.5c-3.3,2.4-8.3,4.3-14.9,5.8c-6.5,1.5-14.5,2.2-24,2.2c-9.6,0-17.5-0.8-23.8-2.5
	c-6.2-1.7-9.3-4.3-9.3-7.6c0-2.5,1.6-4.4,4.9-5.8c3.3-1.5,7.7-2.5,13-3.2c5.4-0.7,11.3-1.3,17.5-1.6c1,0,2-0.1,3.2-0.2h-54.7
	c-1,0.5-1.9,1-2.8,1.6c-3.5,2.2-5.3,5.2-5.3,8.8c0,4.1,2.4,7.6,7.1,10.5c4.8,2.9,11.2,5.1,19.3,6.6c8.1,1.5,17.1,2.3,27,2.3
	c9.1,0,16.8-0.5,23.1-1.6c6.3-1.1,11.4-2.4,15.2-4c3.8-1.6,6.5-3,8.2-4.4h1.2v8.5h24.1V56.3H343.8z M361.8,31
	c-4.1-3-9.2-5.2-15.4-6.7c-6.1-1.5-12.5-2.4-19.1-2.9c-6.5-0.5-12.3-0.7-17.3-0.7c-7.9,0-15.9,0.4-24.1,1.3
	c-8.1,0.8-15.6,2.3-22.4,4.5c-6.8,2.1-12.2,5.1-16.3,8.9l22.8,3.3c2.6-2.3,7.2-4.5,13.8-6.5c6.5-2,15.5-3,27-3
	c11.1,0,19.3,1.1,24.8,3.4c5.5,2.2,8.2,5.4,8.2,9.4v0.3c0,1.6-1.4,2.7-4.2,3.3c-2.7,0.6-7.1,1.1-13,1.3c-5.2,0.2-11.9,0.5-20,1h61.3
	V43C367.9,38,365.9,34,361.8,31z"/>
<path d="M164.4,21.5v8.2h81.1v-8.2H164.4z M188,6.4v41.5h24V6.4H188z M243.5,75.5c-1,0.1-2.4,0.2-4.1,0.3c-1.7,0.1-3.9,0.2-6.5,0.2
	c-3.5,0-6.9-0.2-10.1-0.6c-3.1-0.5-5.7-1.4-7.7-2.7c-2-1.4-3-3.4-3-6.2V56.3h-24v12.8c0,3.7,2.1,6.7,6.3,9.1
	c4.3,2.4,9.6,4.2,16.1,5.4c6.5,1.2,13.2,1.8,20,1.8c4.5,0,8.2-0.1,11.1-0.4c2.9-0.2,5.2-0.5,6.8-0.7L243.5,75.5z"/>
<rect x="41.1" y="56.3" width="24" height="28.2"/>
<path d="M165,44.5v3.5h-24v-2.8c0-5-3.2-8.8-9.6-11.6c-6.4-2.8-15.1-4.2-26.3-4.2c-7.7,0-14.5,0.7-20.6,2c-6,1.3-10.7,3.3-14.2,5.9
	c-3.5,2.6-5.2,5.7-5.2,9.3v1.3h-24V21.5h23.2v9.8h2c3.7-3.2,9.2-5.8,16.7-7.7c7.5-2,17.1-3,28.9-3c10.6,0,19.9,0.9,27.8,2.6
	c8,1.7,14.1,4.3,18.5,7.9C162.8,34.7,165,39.1,165,44.5z"/>
<rect x="141" y="56.3" width="24" height="28.2"/>
<rect y="0.5" width="25.3" height="47.4"/>
<rect y="56.3" width="25.3" height="28.2"/>
<path d="M624.8,21.6v7.1h-2.4c-1.7-0.8-4.2-1.8-7.3-3c-3.1-1.2-7.6-2.3-13.5-3.3c-5.8-1-13.7-1.5-23.6-1.5c-12.8,0-24.2,0.9-34,2.8
	c-9.8,1.9-17.4,4.5-22.9,7.9c-5.5,3.4-8.2,7.4-8.2,12c0,1.4,0.3,2.8,0.8,4.1h23.8c-0.8-1.3-1.1-2.7-1.1-4.2c0-3,1.6-5.8,4.9-8.3
	c3.3-2.5,8.2-4.5,14.8-6c6.6-1.5,14.9-2.2,24.8-2.2c9.5,0,17.5,0.7,24,2.1c6.5,1.4,11.4,3.3,14.7,5.8c3.3,2.5,5,5.3,5,8.5
	c0,1.5-0.4,2.9-1.1,4.2h24.1V21.6H624.8z M610.2,56.3c-1.7,0.5-3.6,1-5.7,1.4c-6.5,1.3-14.4,1.9-23.8,1.9c-9.8,0-18-0.7-24.6-2
	c-1.8-0.4-3.5-0.8-5.1-1.3h-28.7c5.6,3,13,5.3,22.1,6.9c9.8,1.7,20.9,2.6,33.2,2.6c9.9,0,17.8-0.5,23.6-1.4c5.9-0.9,10.4-2,13.5-3.2
	c3.2-1.2,5.6-2.2,7.4-3h2v9.1c0,3.7-4,6.5-12,8.2c-8,1.8-18.2,2.6-30.5,2.6c-9.2,0-16.6-0.4-22.3-1.2c-5.6-0.8-10.1-1.7-13.3-2.8
	c-3.2-1-5.9-2-8-2.8l-18.7,3.9c3.2,1.6,7.5,3,12.8,4.4c5.4,1.4,12.2,2.5,20.3,3.3c8.2,0.9,17.9,1.3,29.2,1.3
	c12.2,0,23.2-0.6,33.2-1.7c10-1.1,17.9-2.9,23.8-5.3c6-2.4,8.9-5.5,8.9-9.4V56.3H610.2z"/>
<path class="st0" d="M657.9,12.6c3.6,1.4,7.9,2.2,12.8,2.2c5,0,9.2-0.7,12.7-2.2c3.6-1.4,5.4-3.2,5.4-5.2c0-2-1.8-3.8-5.4-5.2
	C680,0.7,675.7,0,670.7,0c-5,0-9.2,0.7-12.8,2.2c-3.5,1.4-5.3,3.2-5.3,5.2C652.6,9.4,654.4,11.1,657.9,12.6z"/>
</svg>
